<svg xmlns="http://www.w3.org/2000/svg"  width="350" viewBox="0 0 398 287">
  <path fill-rule="evenodd" fill="#fff" d="M211,5.942 L211,11.2 L212.4,11.2 L213.8,11.2 L213.8,22.362 L213.8,33.524 L212.2,33.309 L210.6,33.095 L210.6,38.347 L210.6,43.6 L217.129,43.6 C220.721,43.6 226.886,43.77 230.829,43.979 C234.773,44.187 240.364,44.462 243.254,44.591 L248.507,44.824 L248.752,43.847 C249.231,41.94 249.861,32.702 249.533,32.4 C249.35,32.231 246.626,32.006 243.479,31.9 L237.758,31.708 L237.529,32.854 L237.3,34 L232.937,34 L228.575,34 L228.781,29.9 C228.895,27.645 229.085,23.64 229.205,21 C229.324,18.36 229.533,15.064 229.669,13.675 L229.916,11.149 L231.397,11.4 L232.878,11.65 L233.139,8.565 C233.816,0.56 235.094,1.353 220.9,0.959 L211,0.684 L211,5.942 M158.8,2.454 C151.657,3.052 146.934,3.533 146.789,3.677 C146.657,3.81 147.089,7.403 147.742,11.6 L148.022,13.4 L149.651,13.28 L151.281,13.159 L151.542,15.88 C151.686,17.376 151.967,19.86 152.167,21.4 C152.366,22.94 152.726,26 152.966,28.2 C153.207,30.4 153.503,32.965 153.626,33.9 C153.832,35.473 153.78,35.6 152.925,35.606 C150.933,35.619 150.835,35.942 151.333,40.839 C151.903,46.437 151.54,46.142 157.249,45.643 C163.564,45.09 173.108,44.488 182.312,44.06 C186.443,43.867 189.902,43.631 189.999,43.534 C190.096,43.438 190.062,40.623 189.925,37.279 L189.676,31.2 L185.996,31.2 C179.031,31.2 177.321,31.531 177.605,32.823 L177.848,33.927 L174.724,34.179 C173.006,34.318 171.036,34.519 170.346,34.625 C168.81,34.863 168.727,34.615 168.203,28.276 C168,25.814 167.642,21.482 167.408,18.648 C167.174,15.814 166.874,13.319 166.74,13.103 C166.383,12.525 167.411,12.013 168.943,12.006 C169.987,12.001 170.233,11.863 170.049,11.383 C169.919,11.044 169.692,8.794 169.546,6.383 L169.28,2 L166.04,2.06 C164.258,2.093 161,2.27 158.8,2.454 M287.86,7.849 C287.589,9.142 287.195,10.968 286.984,11.906 C286.329,14.818 286.459,15.53 287.676,15.673 C288.633,15.786 288.685,15.866 288.149,16.4 C287.818,16.73 287.199,17.54 286.773,18.2 C286.023,19.364 285.563,19.965 284.1,21.695 C283.715,22.15 283.4,22.641 283.4,22.786 C283.4,22.931 283.062,23.412 282.648,23.856 C282.235,24.3 281.403,25.445 280.8,26.4 C280.197,27.355 279.365,28.5 278.952,28.944 C278.538,29.388 278.2,29.884 278.2,30.047 C278.2,30.21 277.975,30.582 277.7,30.873 C277.425,31.165 276.39,32.627 275.4,34.122 C273.631,36.793 273.573,36.838 272,36.72 L270.4,36.6 L270.13,38.8 C269.982,40.01 269.7,42.201 269.505,43.67 L269.15,46.339 L270.575,46.61 C273.85,47.231 288.038,48.548 288.706,48.292 C289.034,48.165 289.388,47.312 289.516,46.334 C289.864,43.684 290.506,40.276 290.797,39.536 C290.979,39.073 290.795,38.789 290.189,38.596 C289.564,38.398 289.442,38.198 289.753,37.887 C290.297,37.343 302.135,38.61 303.3,39.336 C304.06,39.809 303.898,40.4 303.008,40.4 C302.172,40.4 302.145,40.471 301.372,44.6 C301.125,45.92 300.776,47.72 300.596,48.6 C300.192,50.579 299.678,50.3 305.036,51.011 C307.546,51.344 310.5,51.786 311.6,51.992 C312.7,52.199 314.812,52.554 316.292,52.781 C317.773,53.009 319.206,53.241 319.475,53.297 C319.759,53.357 320.196,52.557 320.512,51.4 C320.813,50.3 321.225,48.815 321.429,48.1 C322.784,43.35 322.766,43.2 320.846,43.2 L319.538,43.2 L318.414,38.7 C317.795,36.225 317.055,33.21 316.77,32 C316.485,30.79 316.048,29.08 315.8,28.2 C315.552,27.32 315.102,25.61 314.8,24.4 C314.498,23.19 314.076,21.514 313.862,20.676 C313.474,19.153 313.474,19.153 314.586,19.397 C315.89,19.683 315.991,19.505 316.855,15.4 C317.179,13.86 317.593,11.911 317.774,11.069 C318.14,9.369 318.175,9.399 315.4,9.02 C314.41,8.884 312.43,8.596 311,8.38 C309.57,8.164 306.24,7.715 303.6,7.381 C300.96,7.048 297.54,6.604 296,6.393 C294.46,6.183 292.109,5.896 290.776,5.755 L288.352,5.499 L287.86,7.849 M109.2,7.678 C107.88,7.831 105.63,8.14 104.2,8.365 C102.77,8.59 99.8,9.042 97.6,9.369 C91.63,10.257 86.102,11.194 83.105,11.825 C81.651,12.132 81.651,11.688 83.098,17.2 C83.53,18.85 83.976,20.603 84.088,21.096 C84.251,21.811 84.485,21.944 85.246,21.753 C86.547,21.426 86.453,22.572 84.602,29.6 C84.399,30.37 84.041,31.9 83.806,33 C83.571,34.1 82.933,37.049 82.389,39.554 C81.845,42.058 81.4,44.441 81.4,44.849 C81.4,45.405 80.999,45.655 79.8,45.846 C78.021,46.131 77.941,46.362 78.748,48.886 C79.049,49.829 79.593,51.59 79.957,52.8 C80.996,56.253 80.707,56.127 85.429,55.179 C89.635,54.334 95.355,53.348 98.509,52.924 C100.759,52.621 100.756,52.63 99.776,48.32 C98.601,43.154 98.24,42.296 97.339,42.532 C96.471,42.759 96.369,42.29 97.145,41.646 C97.642,41.233 103.25,40.285 108.5,39.725 C110.416,39.521 111.489,40.037 110.107,40.498 C109.719,40.627 109.715,41.083 110.087,42.631 C110.347,43.714 110.868,45.95 111.243,47.6 C111.618,49.25 111.957,50.645 111.996,50.7 C112.035,50.755 113.042,50.631 114.233,50.424 C117.577,49.844 124.606,48.84 129.872,48.19 L131.743,47.96 L131.535,46.48 C131.421,45.666 131.178,44.46 130.995,43.8 C130.812,43.14 130.543,41.543 130.397,40.252 L130.13,37.904 L128.426,38.096 C127.018,38.255 126.634,38.146 126.209,37.466 C125.739,36.713 119.44,28.194 118.322,26.8 C112.357,19.358 111.341,17.8 112.372,17.673 C113.544,17.529 113.7,16.495 113.001,13.506 C112.781,12.568 112.376,10.81 112.101,9.6 L111.6,7.4 L109.2,7.678 M361,17.901 C360.67,18.021 359.467,18.542 358.326,19.059 C357.185,19.577 356.158,20 356.044,20 C355.929,20 354.679,20.553 353.265,21.228 L350.694,22.456 L349.48,26.328 C348.811,28.458 347.96,31.221 347.588,32.468 L346.911,34.736 L348.055,36.268 C348.685,37.111 349.38,37.998 349.6,38.241 C349.82,38.483 350.713,39.673 351.583,40.884 C353.151,43.064 353.2,43.094 356.383,43.787 C358.153,44.171 360.14,44.643 360.8,44.834 C362.866,45.434 367.223,46.4 367.861,46.4 C369.838,46.4 369.234,51.313 367.137,52.289 C366.56,52.558 365.935,52.683 365.749,52.568 C365.202,52.231 361.03,51.2 360.209,51.2 C358.346,51.2 357.897,49.553 358.834,46.148 C359.032,45.426 358.863,45.262 357.734,45.078 C357,44.958 355.59,44.671 354.6,44.44 C351.441,43.703 345.214,42.411 344.795,42.405 C344.572,42.402 344.063,43.615 343.663,45.1 C343.262,46.585 342.77,48.213 342.568,48.719 C341.954,50.252 342.098,50.605 345.037,54.77 C347.442,58.178 348.097,58.849 349.337,59.178 C351.938,59.867 357.551,61.199 359.4,61.566 C360.39,61.762 363.262,62.465 365.782,63.128 L370.363,64.333 L374.182,62.732 C381.359,59.723 381.285,59.768 381.801,58.115 C382.061,57.282 382.801,55.478 383.445,54.108 C384.09,52.737 384.726,51.068 384.86,50.399 C384.994,49.731 385.26,49.086 385.452,48.968 C386.856,48.1 380.81,39.06 378.406,38.432 C374.773,37.484 369.834,36.311 367.252,35.783 C364.564,35.234 363.233,34.342 363.588,33.328 C363.679,33.069 363.867,32.248 364.007,31.505 C364.313,29.873 365.937,29.05 367.7,29.633 C368.305,29.833 369.851,30.193 371.136,30.434 C373.828,30.938 375.206,32.024 374.821,33.337 C374.683,33.812 374.468,34.747 374.346,35.416 L374.123,36.632 L379.261,37.943 C382.088,38.665 385.03,39.44 385.8,39.665 C388.508,40.458 389.063,40.329 389.604,38.783 C389.877,38.003 390.573,36.333 391.15,35.071 C391.728,33.809 392.2,32.647 392.199,32.488 C392.196,31.6 385.881,23.432 384.998,23.173 C384.449,23.012 382.65,22.578 381,22.209 C379.35,21.84 377.46,21.378 376.8,21.184 C376.14,20.989 374.43,20.561 373,20.233 C371.57,19.904 368.87,19.279 367,18.844 C362.282,17.747 361.684,17.653 361,17.901 M31.2,22.873 C28.78,23.521 25.09,24.505 23,25.058 C18.846,26.159 18.474,26.261 13.2,27.737 C1.433,31.031 2.164,30.686 3.073,32.516 C3.424,33.222 4.196,34.88 4.789,36.2 C6.728,40.521 6.694,40.472 7.581,40.193 C10.005,39.43 9.909,39.355 11.564,43.286 C12.424,45.329 13.729,48.259 14.464,49.799 C15.199,51.338 15.8,52.715 15.8,52.859 C15.8,53.004 16.52,54.644 17.4,56.504 C19.345,60.617 19.349,60.698 17.6,61.026 C15.898,61.346 15.901,61.168 17.539,64.596 C18.275,66.138 19.21,68.18 19.615,69.134 C20.262,70.657 20.477,70.843 21.376,70.664 C22.512,70.437 28.083,68.89 32.4,67.604 C33.94,67.145 38.62,65.891 42.8,64.818 C52.339,62.369 51.451,62.798 53.466,59.667 C54.41,58.2 55.285,56.91 55.411,56.8 C55.536,56.69 56.044,56.02 56.539,55.311 C57.561,53.846 57.813,55.007 54.391,45.4 C53.373,42.54 52.299,39.39 52.005,38.4 C51.492,36.673 48.537,28.327 47.804,26.537 C47.588,26.01 46.936,25.565 46.126,25.391 C45.397,25.235 44.62,24.973 44.4,24.809 C43.789,24.353 36.455,21.591 36,21.646 C35.78,21.672 33.62,22.224 31.2,22.873 M300.117,25.5 C300.791,27.289 301.4,29.291 301.4,29.715 C301.4,30.143 297.271,29.794 296.382,29.29 C296.007,29.078 296.316,28.39 297.535,26.724 C299.466,24.084 299.566,24.037 300.117,25.5 M101.979,28.109 C102.628,29.039 103.393,29.944 103.679,30.12 C104.806,30.812 104.198,31.551 102.3,31.796 C101.255,31.931 100.067,32.11 99.661,32.194 C98.857,32.359 98.917,31.232 99.889,27.9 C100.436,26.026 100.534,26.036 101.979,28.109 M33.02,33.81 C33.669,34.146 34.2,34.598 34.2,34.815 C34.2,35.031 34.542,35.972 34.961,36.904 C35.379,37.837 36.204,39.95 36.793,41.6 C37.382,43.25 38.03,44.96 38.232,45.4 C41.979,53.543 41.887,54.257 36.915,55.599 C33.554,56.506 33.022,56.394 33.006,54.78 C33.003,54.439 32.842,53.989 32.649,53.78 C32.457,53.571 31.933,52.41 31.485,51.2 C31.037,49.99 30.484,48.55 30.255,48 C30.026,47.45 28.774,44.39 27.472,41.2 C24.849,34.774 24.79,35.319 28.2,34.4 C29.19,34.133 30.36,33.766 30.8,33.585 C31.24,33.403 31.654,33.242 31.72,33.227 C31.786,33.212 32.371,33.475 33.02,33.81 M196.046,54.107 C195.192,56.798 194.309,59.45 194.085,60 C193.551,61.309 193.502,61.467 192.942,63.7 L192.465,65.6 L183.533,65.6 C178.62,65.6 174.6,65.69 174.6,65.8 C174.6,66.213 176.143,67.524 176.367,67.3 C176.495,67.172 176.6,67.277 176.6,67.533 C176.6,67.79 176.87,68 177.2,68 C177.53,68 177.8,68.168 177.8,68.373 C177.8,68.578 178.115,68.847 178.5,68.971 C178.885,69.095 179.83,69.737 180.6,70.397 C181.37,71.058 182.122,71.599 182.271,71.599 C182.421,71.6 182.785,71.842 183.08,72.137 C183.376,72.433 184.334,73.144 185.209,73.718 C186.084,74.291 187.235,75.108 187.767,75.532 L188.734,76.304 L186.451,83.452 C185.195,87.383 183.983,90.933 183.756,91.339 C183.056,92.596 184.622,92.689 185.898,91.466 C187.253,90.167 189.966,88.455 190.322,88.675 C190.543,88.812 190.611,88.741 190.473,88.519 C190.336,88.296 190.848,87.777 191.611,87.366 C192.375,86.955 193,86.479 193,86.309 C193,86.139 193.27,86 193.6,86 C193.93,86 194.2,85.809 194.2,85.576 C194.2,85.343 194.38,85.264 194.6,85.4 C194.82,85.536 195,85.408 195,85.115 C195,83.093 200.083,83.08 200.887,85.1 C200.996,85.375 201.336,85.6 201.643,85.6 C201.949,85.6 202.2,85.791 202.2,86.024 C202.2,86.257 202.38,86.336 202.6,86.2 C202.956,85.98 203.17,86.493 203.052,87.286 C203.029,87.443 203.287,87.465 203.625,87.335 C203.982,87.198 204.863,87.594 205.72,88.277 C206.534,88.925 207.785,89.796 208.5,90.214 C209.215,90.631 209.8,91.085 209.8,91.222 C209.8,91.499 211.633,92.4 212.197,92.4 C212.394,92.4 212.223,91.545 211.816,90.5 C211.41,89.455 210.604,87.07 210.025,85.2 C209.446,83.33 208.815,81.44 208.623,81 C208.431,80.56 208.01,79.339 207.687,78.287 L207.101,76.375 L208.542,75.187 C209.334,74.534 210.211,74 210.491,74 C210.771,74 211,73.865 211.001,73.7 C211.001,73.535 211.946,72.77 213.101,72 C214.255,71.23 215.29,70.499 215.4,70.376 C215.51,70.253 216.815,69.292 218.3,68.241 C222.053,65.585 222.087,65.6 212.273,65.6 L203.546,65.6 L202.849,63.3 C202.466,62.035 201.818,60.1 201.409,59 C200.406,56.305 199.267,52.453 199.267,51.762 C199.267,51.453 199.117,51.2 198.933,51.2 C198.75,51.2 198.6,50.75 198.6,50.2 C198.6,47.837 197.506,49.511 196.046,54.107 M188,101.827 C183.083,103.725 181.427,103.929 179.682,102.85 C177.787,101.679 175.481,101.747 173.161,103.042 C171.095,104.196 166.836,104.247 159.6,103.204 C156.172,102.71 58.773,102.675 20.2,103.154 C0.412,103.4 0.4,103.401 0.279,104.249 C0.064,105.757 0.561,105.768 77.2,106.058 C124.176,106.235 153.784,106.494 155.4,106.743 C166.086,108.39 172.203,108.471 174.838,106.999 L176.631,105.999 L177.803,106.865 C179.766,108.317 182.581,108.299 186.8,106.808 C193.429,104.467 194.361,104.375 196.008,105.905 C197.661,107.441 199.011,107.325 200.762,105.496 C201.6,104.621 205.621,104.64 207.222,105.527 C211.17,107.714 215.949,108.242 218.553,106.778 L220.201,105.852 L221.901,106.771 C224.799,108.338 228.179,108.314 240.8,106.638 C244.455,106.153 257.321,106.012 316.8,105.809 C392.187,105.551 397.505,105.454 397.72,104.327 C397.791,103.957 397.522,103.482 397.124,103.272 C395.619,102.478 244.12,102.261 236.8,103.043 C227.74,104.01 226.067,103.964 223.245,102.672 C220.443,101.389 219.654,101.35 217.696,102.4 C216.875,102.84 215.486,103.2 214.61,103.2 C213.029,103.2 211.789,102.823 206.881,100.85 C205.25,100.194 200.777,100.288 199.385,101.008 C198.335,101.551 198.057,101.551 196.756,101.008 C194.475,100.054 191.988,100.287 188,101.827 M60.2,128.8 L60.2,134.4 L61.4,134.4 L62.6,134.4 L62.6,146.8 L62.6,159.2 L61.4,159.2 L60.2,159.2 L60.2,164.8 L60.2,170.4 L74.708,170.4 L89.216,170.4 L92.908,166.692 L96.6,162.985 L96.6,155.734 L96.6,148.483 L95.168,147.225 L93.735,145.967 L95.168,144.655 L96.6,143.343 L96.596,136.972 L96.592,130.6 L92.866,126.9 L89.14,123.2 L74.67,123.2 L60.2,123.2 L60.2,128.8 M103.1,127.036 L99.4,130.863 L99.403,146.931 L99.406,163 L103.156,166.7 L106.906,170.4 L117.18,170.4 L127.455,170.4 L131.224,166.7 L134.993,163 L134.996,146.904 L135,130.808 L131.214,127.004 L127.429,123.2 L117.114,123.205 L106.8,123.21 L103.1,127.036 M137.8,128.8 L137.8,134.4 L139.2,134.4 L140.6,134.4 L140.6,148.569 L140.6,162.739 L144.462,166.569 L148.324,170.4 L158.569,170.4 L168.815,170.4 L172.708,166.493 L176.6,162.586 L176.6,148.493 L176.6,134.4 L178.011,134.4 L179.423,134.4 L179.311,128.9 L179.2,123.4 L169.9,123.293 L160.6,123.185 L160.6,128.793 L160.6,134.4 L162,134.4 L163.4,134.4 L163.4,146.053 C163.4,159.996 163.703,159.2 158.401,159.2 C153.509,159.2 153.8,160.031 153.8,146.069 L153.8,134.4 L155.2,134.4 L156.6,134.4 L156.6,128.8 L156.6,123.2 L147.2,123.2 L137.8,123.2 L137.8,128.8 M181.8,128.8 L181.8,134.4 L183.2,134.4 L184.6,134.4 L184.6,146.8 L184.6,159.2 L183.2,159.2 L181.8,159.2 L181.8,164.8 L181.8,170.4 L191.2,170.4 L200.6,170.4 L200.6,164.8 L200.6,159.2 L199.2,159.2 L197.8,159.2 L197.8,155.4 L197.8,151.6 L200.829,151.6 C205.199,151.6 205,151.125 205,161.571 L205,170.4 L213,170.4 L221,170.4 L221,164.8 L221,159.2 L219.6,159.2 L218.2,159.2 L218.2,153.919 L218.2,148.638 L216.922,147.319 L215.643,146 L216.922,144.681 L218.2,143.362 L218.2,137.024 L218.2,130.686 L214.523,126.943 L210.846,123.2 L196.323,123.2 L181.8,123.2 L181.8,128.8 M223.8,128.8 L223.8,134.4 L225,134.4 L226.2,134.4 L226.2,146.8 L226.2,159.2 L225,159.2 L223.8,159.2 L223.8,164.8 L223.8,170.4 L238.308,170.4 L252.816,170.4 L256.508,166.692 L260.2,162.985 L260.2,155.734 L260.2,148.483 L258.768,147.225 L257.335,145.967 L258.768,144.655 L260.2,143.343 L260.196,136.972 L260.192,130.6 L256.466,126.9 L252.74,123.2 L238.27,123.2 L223.8,123.2 L223.8,128.8 M266.7,127.033 L263,130.81 L263.003,146.905 L263.006,163 L266.756,166.7 L270.506,170.4 L280.8,170.4 L291.094,170.4 L294.844,166.7 L298.594,163 L298.597,146.904 L298.6,130.808 L294.814,127.004 L291.029,123.2 L280.714,123.228 L270.4,123.256 L266.7,127.033 M301.4,128.8 L301.4,134.4 L302.8,134.4 L304.2,134.4 L304.2,146.8 L304.2,159.2 L302.8,159.2 L301.4,159.2 L301.4,164.8 L301.4,170.4 L310.8,170.4 L320.2,170.4 L320.2,164.8 L320.2,159.2 L318.8,159.2 L317.4,159.2 L317.4,154.733 C317.4,152.277 317.464,150.342 317.543,150.433 C318.08,151.059 323.4,160.144 323.4,160.435 C323.4,160.636 323.58,160.8 323.8,160.8 C324.02,160.8 324.2,161.055 324.2,161.367 C324.2,161.678 324.335,161.993 324.5,162.067 C324.665,162.14 325.206,162.92 325.703,163.8 C326.2,164.68 327.273,166.525 328.088,167.9 L329.57,170.4 L337.485,170.4 L345.4,170.4 L345.4,164.8 L345.4,159.2 L344,159.2 L342.6,159.2 L342.6,146.8 L342.6,134.4 L344,134.4 L345.4,134.4 L345.4,128.8 L345.4,123.2 L336,123.2 L326.6,123.2 L326.6,128.8 L326.6,134.4 L328,134.4 L329.4,134.4 L329.392,139.1 L329.383,143.8 L327.792,141.315 C326.916,139.949 326.2,138.659 326.2,138.449 C326.2,138.239 326.065,138.007 325.9,137.933 C325.735,137.86 325.308,137.26 324.951,136.6 C324.594,135.94 322.839,132.989 321.051,130.042 C319.263,127.095 317.8,124.607 317.8,124.513 C317.8,123.414 316.371,123.2 309.029,123.2 L301.4,123.2 L301.4,128.8 M82.669,135.062 C85.284,137.429 83.042,140.8 78.853,140.8 L75.8,140.8 L75.8,137.6 L75.8,134.4 L78.869,134.4 C81.162,134.4 82.122,134.567 82.669,135.062 M121.069,135.062 C122.134,136.026 122.197,157.298 121.138,158.469 C120.219,159.483 114.433,159.535 113.331,158.538 C112.266,157.574 112.203,136.302 113.262,135.131 C114.181,134.117 119.967,134.065 121.069,135.062 M204.269,135.062 C206.784,137.338 204.529,140.8 200.53,140.8 L197.8,140.8 L197.8,137.6 L197.8,134.4 L200.669,134.4 C202.776,134.4 203.731,134.576 204.269,135.062 M246.269,135.062 C248.811,137.363 246.646,140.8 242.653,140.8 L239.8,140.8 L239.8,137.6 L239.8,134.4 L242.669,134.4 C244.776,134.4 245.731,134.576 246.269,135.062 M284.669,135.062 C285.734,136.026 285.797,157.298 284.738,158.469 C283.819,159.483 278.033,159.535 276.931,158.538 C275.866,157.574 275.803,136.302 276.862,135.131 C277.781,134.117 283.567,134.065 284.669,135.062 M82.669,152.262 C83.229,152.769 83.4,153.51 83.4,155.433 C83.4,158.858 82.998,159.2 78.971,159.2 L75.8,159.2 L75.8,155.4 L75.8,151.6 L78.869,151.6 C81.162,151.6 82.122,151.767 82.669,152.262 M246.269,152.262 C246.829,152.769 247,153.51 247,155.433 C247,158.822 246.576,159.2 242.771,159.2 L239.8,159.2 L239.8,155.4 L239.8,151.6 L242.669,151.6 C244.776,151.6 245.731,151.776 246.269,152.262 M199.787,192.776 C199.23,192.946 198.394,193.322 197.929,193.612 C197.203,194.066 196.982,194.04 196.368,193.425 C195.535,192.592 189.451,192.664 188,193.524 C187.56,193.785 185.77,194.452 184.022,195.008 L180.844,196.018 L178.782,195.009 C176.183,193.737 175.2,193.743 172.76,195.046 C170.652,196.171 165.9,196.227 157.8,195.222 C156.15,195.017 143.265,194.838 129.166,194.825 C87.803,194.785 -0.39,195.365 4.4,195.645 C6.82,195.787 38.86,196.03 75.6,196.186 C138.295,196.451 153.285,196.698 160.6,197.586 C166.812,198.34 171.791,198.115 173.917,196.983 L175.828,195.966 L177.077,196.855 C179.125,198.313 181.779,198.299 186,196.809 C192.413,194.546 193.856,194.42 195.6,195.97 C197.01,197.223 197.669,197.217 199.274,195.935 C201.066,194.503 203.794,194.488 207.005,195.892 C211.648,197.921 215.234,198.194 217.862,196.717 L219.432,195.834 L221.238,196.817 C223.308,197.944 230.645,198.137 236.145,197.209 C241.599,196.289 253.931,196.111 319.2,196.007 C355.5,195.949 387.63,195.789 390.6,195.651 L396,195.4 L389.6,195.103 C375.38,194.443 239.274,194.683 232.865,195.379 C229.601,195.733 226.271,195.914 225.465,195.781 C223.828,195.511 221.705,194.782 221.4,194.386 C220.91,193.75 218.669,193.68 217.566,194.267 C215.095,195.581 212.112,195.637 209.6,194.416 C206.197,192.762 202.092,192.076 199.787,192.776 M106.73,209.143 C102.52,211.269 102.245,211.481 102.014,212.8 C101.878,213.57 101.614,214.65 101.427,215.2 C101.015,216.413 99.12,222.785 98.513,225 C98.272,225.88 97.67,227.95 97.176,229.6 C96.682,231.25 96.055,233.41 95.784,234.4 C95.514,235.39 95.113,236.748 94.896,237.417 C94.486,238.674 95.176,239.988 99.299,245.8 C100.506,247.502 100.543,247.517 107.6,249.23 C109.36,249.657 111.43,250.171 112.2,250.372 C112.97,250.572 114.32,250.922 115.2,251.149 C120.277,252.459 123.866,252.486 125,251.223 C125.172,251.032 126.946,250.069 130.464,248.259 C131.441,247.757 132.014,246.103 132.425,242.6 C132.58,241.28 132.849,239.819 133.023,239.354 C133.392,238.367 132.727,238.117 126.8,237.021 C124.82,236.655 122.647,236.186 121.972,235.978 C120.056,235.389 119.961,235.459 119.383,237.9 C118.646,241.017 117.412,241.828 114.919,240.833 C114.413,240.632 113.138,240.246 112.084,239.977 C109.133,239.223 108.993,238.075 111.038,231.4 C111.24,230.74 111.75,228.76 112.171,227 C113.546,221.249 114.227,219.031 114.718,218.705 C115.269,218.339 118.865,218.716 119.874,219.246 C120.244,219.441 120.889,219.6 121.306,219.6 C122.694,219.6 123.121,221.144 122.489,223.879 L121.927,226.314 L123.363,226.74 C124.154,226.975 125.79,227.372 127,227.622 C128.21,227.873 129.92,228.234 130.8,228.424 C135.192,229.372 134.927,229.414 135.203,227.727 C135.531,225.725 136.183,222.531 136.599,220.89 C136.871,219.816 136.769,219.383 136.031,218.49 C135.536,217.89 134.19,216.05 133.04,214.4 C130.994,211.465 130.9,211.39 128.674,210.946 C126.174,210.448 123.164,209.761 121,209.195 C120.23,208.993 118.43,208.573 117,208.262 C115.57,207.95 114.13,207.599 113.8,207.481 C111.828,206.777 111.056,206.958 106.73,209.143 M291.6,208.033 C290.72,208.226 289.37,208.56 288.6,208.773 C286.246,209.427 280.514,210.757 278.4,211.141 C275.114,211.738 266.016,213.651 265.897,213.77 C265.776,213.891 266.443,217.349 267.03,219.646 C267.234,220.442 267.4,221.567 267.4,222.146 C267.4,223.109 267.538,223.2 269,223.2 C270.392,223.2 270.6,223.317 270.6,224.1 C270.601,224.595 270.885,226.35 271.233,228 C271.902,231.171 272.209,232.793 273.239,238.6 C274.428,245.3 274.472,244.66 272.801,244.973 C271.439,245.229 271.347,245.332 271.599,246.325 C271.953,247.717 272.551,250.933 272.866,253.144 L273.114,254.888 L275.157,254.628 C276.972,254.397 280.411,253.728 284.6,252.79 C285.37,252.618 287.08,252.272 288.4,252.021 C290.54,251.615 294.156,250.783 301.553,248.995 C302.848,248.682 303.958,248.376 304.02,248.313 C304.192,248.14 309.195,241.055 309.546,240.487 C309.896,239.921 309.285,236.655 308.154,233.045 C307.733,231.7 307.177,229.91 306.919,229.067 C306.546,227.847 306.138,227.409 304.925,226.923 C303.129,226.205 303.081,225.965 304.392,224.245 C305.229,223.149 305.324,222.76 304.994,221.772 C304.78,221.127 304.099,218.737 303.482,216.46 L302.36,212.319 L297.889,209.96 C295.43,208.662 293.369,207.618 293.309,207.64 C293.249,207.662 292.48,207.839 291.6,208.033 M74.2,211.194 L70.8,214.356 L69,213.333 C60.875,208.714 61.205,208.695 63.53,213.649 C64.498,215.712 65.397,217.708 65.526,218.084 C65.739,218.698 60.632,223.887 59.375,224.333 C58.034,224.81 59.153,225.611 60.9,225.426 C61.945,225.315 64.096,225.118 65.68,224.99 L68.56,224.756 L69.471,226.678 C69.972,227.735 70.386,228.78 70.391,229 C70.396,229.22 70.492,229.49 70.605,229.6 C70.718,229.71 71.246,230.664 71.778,231.72 C72.951,234.045 73.047,233.912 74.183,228.41 C75.23,223.331 74.497,223.94 80.09,223.51 C85.151,223.122 85.61,222.99 84.409,222.27 C81.395,220.463 79.015,219.092 77.9,218.519 C76.371,217.734 76.35,217.503 77.4,213 C78.806,206.971 78.765,206.948 74.2,211.194 M325.55,209.1 C325.684,209.705 325.993,211.1 326.237,212.2 C327.587,218.283 327.996,217.387 322.429,220.546 C320.543,221.617 319,222.627 319,222.791 C319,223.145 322.395,223.589 325.2,223.602 C327.964,223.614 329,223.952 329,224.841 C329,225.252 329.181,226.356 329.403,227.294 C329.624,228.232 329.997,230.035 330.231,231.3 C330.748,234.093 331.008,234.149 332.088,231.7 C332.549,230.655 333.433,228.666 334.052,227.28 L335.179,224.761 L338.39,224.996 C340.155,225.125 342.365,225.325 343.3,225.44 C345.922,225.762 345.654,225.406 338.927,219.625 C338.122,218.933 337.947,218.54 338.225,218.051 C339.453,215.895 342.09,209.6 341.765,209.6 C341.551,209.6 340.076,210.342 338.488,211.25 C336.899,212.157 335.034,213.223 334.342,213.619 C333.165,214.293 333.038,214.296 332.342,213.668 C325.824,207.782 325.16,207.335 325.55,209.1 M156.476,217.247 C156.348,217.991 156.135,219.86 156.001,221.4 C155.868,222.94 155.675,224.605 155.572,225.1 C155.406,225.899 155.544,226 156.797,226 L158.209,226 L157.987,227.7 C157.864,228.635 157.58,230.84 157.354,232.6 C157.128,234.36 156.786,236.79 156.594,238 C156.401,239.21 156.13,241.64 155.99,243.4 C155.625,248.007 155.592,248.077 153.864,247.927 L152.4,247.8 L152.117,250.2 C151.961,251.52 151.713,253.696 151.567,255.035 L151.301,257.47 L155.05,257.954 C162.538,258.922 164.895,259.183 170.156,259.626 C175.647,260.088 188.285,260.718 188.545,260.542 C188.624,260.488 188.785,257.744 188.902,254.444 L189.115,248.444 L188.157,248.232 C187.631,248.116 185.085,247.971 182.499,247.91 L177.799,247.8 L177.799,248.96 L177.8,250.121 L173.747,249.874 C168.842,249.575 169.236,249.983 169.741,245.728 C170.161,242.194 170.775,235.938 171.236,230.5 C171.48,227.616 171.488,227.6 172.653,227.6 C174.088,227.6 174.079,227.629 174.386,222.157 L174.636,217.715 L171.318,217.461 C169.493,217.322 166.56,217.03 164.8,216.813 C163.04,216.596 160.499,216.301 159.154,216.157 L156.709,215.894 L156.476,217.247 M244.8,216.623 C243.247,216.845 235.961,217.579 232.9,217.822 L229.8,218.068 L229.8,221.178 C229.8,226.981 230.071,227.938 231.751,228.079 L233.2,228.2 L233.468,231.8 C233.616,233.78 233.925,237.74 234.156,240.6 C234.92,250.045 235.033,249.774 230.175,250.107 C224.623,250.487 225.056,251.659 224.259,234.099 L224,228.399 L225.335,228.399 L226.67,228.4 L226.386,223.5 C226.229,220.805 226.076,218.567 226.045,218.527 C226.014,218.488 221.874,218.561 216.846,218.69 L207.703,218.926 L207.948,220.963 C208.083,222.083 208.195,224.305 208.197,225.9 L208.2,228.8 L209.574,228.8 L210.949,228.8 L211.074,241.426 L211.2,254.053 L212.663,255.326 C213.467,256.027 214.96,257.23 215.979,258 C216.999,258.77 218.114,259.656 218.457,259.969 C219.173,260.622 224.133,260.629 232.8,259.989 C242.694,259.259 241.429,259.84 247.705,253.144 L249.009,251.752 L248.58,247.976 C248.344,245.899 247.997,242.94 247.81,241.4 C247.622,239.86 247.276,236.71 247.041,234.4 C246.806,232.09 246.514,229.345 246.393,228.3 C246.173,226.402 246.174,226.4 247.386,226.4 C248.836,226.4 248.892,225.92 248.119,220.1 C247.583,216.063 247.72,216.206 244.8,216.623 M290.5,220.357 C291.827,221.939 290.965,224.074 288.8,224.564 C285.578,225.293 284.392,225.522 284.3,225.432 C284.015,225.151 283.321,220.746 283.529,220.537 C283.663,220.404 284.904,219.989 286.286,219.615 C288.86,218.92 289.37,219.01 290.5,220.357 M293.377,234.377 C293.957,234.745 294.983,237.606 294.994,238.891 C295.003,239.896 293.537,240.7 290.556,241.325 L287.934,241.874 L287.267,239.008 C286.385,235.218 286.374,235.273 288.1,234.992 C288.925,234.857 289.96,234.591 290.4,234.401 C291.465,233.939 292.669,233.93 293.377,234.377 M62.766,263.546 C62.921,263.796 63.307,264 63.624,264 C64.316,264 64.328,264.237 63.757,266.694 C62.548,271.894 62.508,272 61.748,272 C60.328,272 61.005,272.696 62.7,272.977 C66.926,273.68 68.09,273.788 69.401,273.601 C75.219,272.768 74.265,265.018 68.2,263.848 C64.969,263.225 62.483,263.087 62.766,263.546 M338.292,263.868 C337.835,264.052 336.6,266.031 336.6,266.58 C336.6,267.115 337.534,266.723 338.19,265.913 C338.805,265.154 339.001,265.103 339.554,265.562 C340.385,266.252 340.368,266.469 339.4,267.508 C338.554,268.416 338.328,269.6 339,269.6 C339.22,269.6 339.4,269.42 339.4,269.2 C339.4,268.356 341.271,268.812 341.79,269.782 C342.688,271.46 341.415,272.94 339.371,272.595 C338.091,272.379 337.8,272.447 337.8,272.965 C337.8,273.777 341.255,273.836 342.302,273.042 C344.084,271.689 343.999,268.04 342.174,267.577 C341.6,267.431 341.261,267.097 341.349,266.765 C341.431,266.454 341.58,265.912 341.68,265.56 C342.057,264.234 339.971,263.192 338.292,263.868 M68.581,265.021 C72.844,266.257 71.958,272.812 67.531,272.794 C65.087,272.784 64.847,272.455 65.161,269.542 C65.55,265.925 66.119,264.327 66.936,264.553 C67.301,264.654 68.042,264.865 68.581,265.021 M326.25,267.032 C324.866,268.469 324.835,269.345 326.2,268.493 C327.16,267.893 327.203,267.975 327.801,271.57 C328.257,274.307 328.239,274.582 327.572,275.07 C326.927,275.542 327.02,275.597 328.424,275.572 C330.595,275.533 331.967,274.958 330.758,274.592 C330.075,274.385 329.821,273.797 329.41,271.469 C328.265,264.979 328.25,264.957 326.25,267.032 M82.372,268.277 C79.482,273.38 78.174,275.118 77.381,274.911 C76.951,274.799 76.6,274.872 76.6,275.074 C76.6,275.469 80.667,276.439 80.999,276.124 C81.109,276.02 80.902,275.718 80.54,275.453 C79.96,275.029 79.946,274.816 80.421,273.685 C81.44,271.261 84.2,272.193 84.2,274.961 C84.2,275.735 84.045,275.916 83.545,275.724 C83.1,275.553 82.95,275.649 83.075,276.025 C83.389,276.968 87.8,277.692 87.8,276.8 C87.8,276.58 87.456,276.4 87.035,276.4 C86.442,276.4 86.213,276.018 86.014,274.7 C85.764,273.042 85.2,270.185 84.657,267.831 C84.244,266.037 83.565,266.169 82.372,268.277 M314.513,268.3 C311.298,271.986 313.925,279.149 317.934,277.625 C320.677,276.582 320.396,269.347 317.562,268.055 C316.153,267.414 315.221,267.488 314.513,268.3 M93.4,268.53 C93.4,268.869 93.742,269.254 94.159,269.387 C94.601,269.527 94.863,269.914 94.786,270.314 C94.714,270.691 94.437,272.395 94.171,274.1 C93.725,276.954 93.612,277.2 92.743,277.2 C91.239,277.2 91.653,277.941 93.3,278.196 C94.125,278.324 95.775,278.602 96.967,278.814 C100.08,279.369 100.419,279.315 100.936,278.181 C101.788,276.31 100.958,275.593 99.8,277.2 C98.782,278.612 95.354,278.356 95.772,276.899 C95.945,276.293 96.218,274.403 96.378,272.699 L96.668,269.6 L97.858,269.6 C99.685,269.6 98.862,268.943 96.712,268.686 C95.66,268.56 94.485,268.335 94.1,268.186 C93.619,267.999 93.4,268.107 93.4,268.53 M317.168,269.3 C318.793,271.797 318.189,278.472 316.494,276.74 C315.027,275.24 314.25,269.519 315.413,268.783 C316.279,268.236 316.521,268.307 317.168,269.3 M83.4,270.6 C83.4,271.333 83.187,271.6 82.6,271.6 C81.686,271.6 81.639,271.449 82.214,270.374 C82.792,269.293 83.4,269.409 83.4,270.6 M302.062,270.331 C301.358,271.11 301.147,273.2 301.773,273.2 C301.978,273.2 302.246,272.885 302.369,272.499 C302.72,271.391 304.143,270.655 304.831,271.226 C306.02,272.213 305.064,274.947 302.643,277.483 C301.456,278.727 301.492,280.153 302.7,279.766 C303.195,279.607 304.59,279.37 305.8,279.239 C307.932,279.007 308.004,278.96 308.125,277.7 C308.26,276.304 307.956,276.054 307.244,276.975 C307,277.291 306.091,277.677 305.224,277.834 L303.648,278.118 L304.539,276.959 C307.501,273.108 308.018,271.483 306.669,270.262 C305.659,269.348 302.914,269.39 302.062,270.331 M107,270.308 C107,270.525 107.346,270.949 107.768,271.251 C108.463,271.747 108.499,272.03 108.139,274.2 C107.92,275.52 107.656,277.185 107.552,277.9 C107.398,278.962 107.184,279.2 106.382,279.2 C105.406,279.2 104.944,279.984 105.9,280.018 C107.102,280.06 112.092,280.734 113.029,280.98 C113.952,281.223 114.124,281.083 114.697,279.626 C115.458,277.687 114.883,277.422 113.382,279.019 C112.643,279.805 112.103,280.011 111.012,279.919 L109.6,279.8 L109.704,277 C109.876,272.357 110.089,271.6 111.218,271.6 C112.832,271.6 112.329,270.923 110.5,270.632 C109.565,270.483 108.395,270.261 107.9,270.138 C107.405,270.014 107,270.091 107,270.308 M279.3,272.1 C279.184,272.449 277.955,272.618 275.24,272.66 C273.098,272.693 271.294,272.783 271.231,272.86 C271.167,272.937 271.004,273.585 270.867,274.3 C270.565,275.888 271.14,275.998 272.435,274.6 C274.13,272.771 274.851,273.227 275.121,276.3 C275.251,277.785 275.479,279.581 275.627,280.292 C275.868,281.445 275.774,281.637 274.748,282.085 C273.64,282.57 273.683,282.592 275.955,282.715 C279.027,282.882 281.132,281.906 278.516,281.528 C277.521,281.384 277.195,280.276 276.916,276.1 L276.749,273.6 L278.048,273.6 C278.995,273.6 279.415,273.816 279.6,274.4 C280.047,275.81 280.6,275.257 280.6,273.4 C280.6,271.663 279.734,270.797 279.3,272.1 M123.192,276.524 C121.446,280.068 121.041,280.617 120.092,280.727 C118.884,280.867 118.654,281.382 119.633,281.757 C120.662,282.152 123.8,282.034 123.8,281.6 C123.8,281.38 123.44,281.2 123,281.2 C122.042,281.2 122.039,280.969 122.974,279.4 C123.739,278.117 125.59,277.827 126.261,278.884 C126.83,279.782 126.655,281.6 126,281.6 C124.904,281.6 125.38,282.296 126.65,282.55 C128.516,282.923 130.2,282.852 130.2,282.4 C130.2,282.18 129.944,282 129.632,282 C129.068,282 128.111,279.56 127.594,276.8 C126.538,271.167 125.852,271.124 123.192,276.524 M136.716,274.169 C135.189,275.944 136.167,278.194 139.168,279.811 C140.96,280.776 141.138,282.215 139.54,282.823 C138.407,283.254 136.6,282.09 136.6,280.93 C136.6,280.639 136.33,280.4 136,280.4 C135.67,280.4 135.398,280.625 135.395,280.9 C135.392,281.175 135.286,281.783 135.16,282.252 C134.796,283.611 138.572,284.413 140.485,283.382 C142.467,282.315 142.314,279.487 140.2,278.124 C137.219,276.204 136.599,274.717 138.678,274.476 C139.468,274.384 139.927,274.622 140.421,275.376 C141.338,276.775 141.876,276.661 141.725,275.1 C141.582,273.614 137.799,272.911 136.716,274.169 M261.2,274.078 C258.491,275.614 259.322,278.211 263.069,279.921 C265.281,280.932 265.581,281.314 265.004,282.392 C264.377,283.565 262.463,283.461 261.471,282.2 C260.38,280.812 259.8,280.951 259.8,282.6 L259.8,284 L262.371,284 C267.192,284 268.286,279.55 263.8,278.188 C261.143,277.382 260.249,275.862 261.845,274.865 C262.592,274.398 262.815,274.456 263.767,275.368 C265.093,276.639 265.4,276.66 265.4,275.48 C265.4,273.719 263.154,272.97 261.2,274.078 M163.623,276.217 C163.274,278.08 163.566,278.359 164.727,277.268 C166.745,275.372 167.4,275.999 167.4,279.826 C167.4,283.373 166.994,284.8 165.986,284.8 C165.664,284.8 165.4,284.98 165.4,285.2 C165.4,285.429 166.6,285.6 168.2,285.6 C170.82,285.6 172.101,285.012 170.1,284.728 C168.268,284.468 168.702,276.265 170.536,276.477 C171.18,276.551 171.756,276.955 171.995,277.5 C172.512,278.68 173,278.647 173,277.433 C173,276.901 173.092,276.226 173.205,275.933 C173.367,275.51 172.559,275.4 169.305,275.4 C167.047,275.4 164.907,275.254 164.549,275.076 C164.025,274.815 163.844,275.038 163.623,276.217 M248.1,275.098 C245.366,275.202 242.756,276 245.15,276 C245.553,276 245.801,277.041 246.079,279.9 C246.453,283.75 246.389,284.088 245.2,284.539 C244.025,284.984 245.71,285.128 249.667,284.919 L254.114,284.685 L254.345,283.263 C254.658,281.331 254.344,281.186 253.15,282.712 C252.264,283.844 251.909,284 250.222,284 L248.302,284 L248.043,282.376 C247.631,279.803 250.031,278.713 251.073,281 C251.819,282.638 252.248,282.144 252.12,279.795 C252,277.588 251.313,276.607 251.072,278.3 C250.807,280.166 247.8,279.562 247.8,277.643 C247.8,275.955 248.222,275.6 250.229,275.6 C250.96,275.6 251.579,275.898 251.893,276.4 C252.492,277.359 253.599,277.496 253.243,276.567 C253.109,276.219 253,275.679 253,275.367 C253,275.055 252.685,274.837 252.3,274.882 C251.915,274.927 250.025,275.025 248.1,275.098 M125.794,276.9 C125.801,277.67 125.482,277.767 124.659,277.245 C124.224,276.969 124.213,276.723 124.602,275.997 C125.129,275.011 125.782,275.505 125.794,276.9 M225.5,276.396 C223.031,277.901 223.75,280.177 227.251,281.936 C229.193,282.913 229.557,283.598 228.747,284.754 C227.926,285.927 227.15,285.814 225.788,284.323 C224.475,282.885 224.315,282.912 224.13,284.603 C224,285.799 224.002,285.8 226.338,285.921 C231.344,286.18 232.509,282.47 228.121,280.244 C225.565,278.948 225.076,278.221 226.041,277.155 C226.749,276.373 228.043,276.712 228.72,277.858 C229.23,278.722 229.8,278.487 229.8,277.414 C229.8,275.597 227.647,275.087 225.5,276.396 M178.2,276.299 C178.2,276.523 178.585,276.807 179.055,276.93 C179.777,277.119 179.87,277.351 179.655,278.427 C179.515,279.127 179.4,280.938 179.4,282.45 C179.4,284.933 179.322,285.2 178.6,285.2 C178.16,285.2 177.8,285.38 177.8,285.6 C177.8,285.844 179.652,286 182.555,286 L187.309,286 L187.507,284.7 C187.784,282.883 187.505,282.801 186.257,284.33 C185.283,285.523 184.998,285.642 183.388,285.527 L181.6,285.4 L181.479,283.3 L181.358,281.2 L182.751,281.2 C183.875,281.2 184.169,281.368 184.272,282.069 C184.563,284.046 185.4,283.278 185.4,281.033 C185.4,279.805 185.22,278.8 185,278.8 C184.78,278.8 184.6,279.16 184.6,279.6 C184.6,280.267 184.333,280.4 183,280.4 L181.4,280.4 L181.4,278.8 L181.4,277.2 L183.373,277.2 C184.995,277.2 185.391,277.342 185.6,278 C186.003,279.269 187,278.984 187,277.6 L187,276.4 L184.456,276.4 C183.057,276.4 181.077,276.286 180.056,276.146 C178.895,275.987 178.2,276.044 178.2,276.299 M192.6,276.8 C192.6,277.02 192.844,277.2 193.142,277.2 C193.908,277.2 197.077,281.548 196.733,282.126 C195.766,283.752 193.957,285.6 193.333,285.6 C192.93,285.6 192.6,285.78 192.6,286 C192.6,286.222 193.667,286.4 195,286.4 C196.333,286.4 197.4,286.222 197.4,286 C197.4,285.78 197.04,285.6 196.6,285.6 C195.647,285.6 195.596,285.347 196.391,284.552 C196.716,284.227 197.16,283.654 197.376,283.28 C197.724,282.68 197.913,282.764 198.988,284 C200.118,285.3 200.147,285.409 199.402,285.528 C197.583,285.818 198.783,286.4 201.2,286.4 C202.667,286.4 203.8,286.226 203.8,286 C203.8,285.78 203.485,285.6 203.1,285.599 C202.715,285.599 201.86,284.793 201.2,283.808 C200.54,282.823 199.865,282.014 199.7,282.009 C199.535,282.004 199.4,281.64 199.4,281.2 C199.4,280.76 199.535,280.399 199.7,280.397 C199.865,280.396 200.308,279.854 200.683,279.194 C201.059,278.533 201.824,277.819 202.383,277.606 C204.085,276.959 203.536,276.4 201.2,276.4 C198.996,276.4 198.253,276.911 199.85,277.329 L200.701,277.552 L199.75,278.754 C198.633,280.167 197.952,280.308 197.6,279.2 C197.46,278.76 197.178,278.4 196.973,278.4 C196.768,278.4 196.6,278.13 196.6,277.8 C196.6,277.47 196.87,277.2 197.2,277.2 C197.53,277.2 197.8,277.02 197.8,276.8 C197.8,276.574 196.667,276.4 195.2,276.4 C193.733,276.4 192.6,276.574 192.6,276.8 M212.112,279.1 C211.553,280.585 210.79,282.655 210.415,283.7 C209.924,285.069 209.52,285.6 208.967,285.6 C208.545,285.6 208.2,285.78 208.2,286 C208.2,286.22 209.19,286.4 210.4,286.4 C211.61,286.4 212.6,286.22 212.6,286 C212.6,285.78 212.24,285.6 211.8,285.6 C210.867,285.6 210.846,285.483 211.468,283.764 C212.238,281.633 214.074,281.632 215.031,283.762 L215.766,285.4 L214.883,285.66 C214.397,285.803 215.17,285.917 216.6,285.914 C218.03,285.91 218.897,285.827 218.527,285.73 C217.869,285.556 215.4,280.282 215.4,279.051 C215.4,278.719 215.22,278.336 215,278.2 C214.78,278.064 214.6,277.603 214.6,277.176 C214.6,275.256 213.129,276.394 212.112,279.1 M213.794,280.9 C213.797,281.285 213.53,281.6 213.2,281.6 C212.565,281.6 212.432,280.903 212.856,279.799 C213.161,279.005 213.784,279.736 213.794,280.9 M285.9,279.892 C285.625,279.988 285.4,280.424 285.4,280.861 C285.4,281.851 287.125,281.751 287.316,280.75 C287.448,280.053 286.715,279.608 285.9,279.892 M147,283.351 C147,283.654 147.27,284.126 147.6,284.4 C148.414,285.076 148.354,285.497 147.4,285.8 C146.402,286.117 146.35,286.8 147.325,286.8 C148.89,286.8 150.131,284.928 149.557,283.433 C149.251,282.634 147,282.562 147,283.351"/>
</svg>
